{
  "source": "C:\\Users\\Peter\\Desktop\\stuff\\MIUN\\quantitative_research\\video_compression\\videos\\BVI-HD\\BVI-HD_CDVL_videos\\ORIG\\PlasmaAveragePan_1920x1080_60fps.mp4",
  "output": "C:\\Users\\Peter\\Desktop\\stuff\\MIUN\\quantitative_research\\video_compression\\compressed_videos\\BVI-HD\\hevc\\1\\PlasmaAveragePan_1920x1080_60fps_hevc.mp4",
  "codec": "hevc",
  "ok": "Input #0, mov,mp4,m4a,3gp,3g2,mj2, from 'C:\\Users\\Peter\\Desktop\\stuff\\MIUN\\quantitative_research\\video_compression\\videos\\BVI-HD\\BVI-HD_CDVL_videos\\ORIG\\PlasmaAveragePan_1920x1080_60fps.mp4':\n  Metadata:\n    major_brand     : isom\n    minor_version   : 512\n    compatible_brands: isomiso2avc1mp41\n    encoder         : Lavf54.28.101\n  Duration: 00:00:05.00, start: 0.000000, bitrate: 73730 kb/s\n  Stream #0:0[0x1](und): Video: h264 (High 4:4:4 Predictive) (avc1 / 0x31637661), yuv420p(progressive), 1920x1080, 73727 kb/s, 60 fps, 60 tbr, 60 tbn (default)\n    Metadata:\n      handler_name    : VideoHandler\n      vendor_id       : [0][0][0][0]\n[out#0/mp4 @ 0000014bb7997900] Codec AVOption b:a (set bitrate (in bits/s)) has not been used for any stream. The most likely reason is either wrong type (e.g. a video option with no video streams) or that it is a private option of some decoder which was not actually used for any stream.\nStream mapping:\n  Stream #0:0 -> #0:0 (h264 (native) -> hevc (libx265))\nPress [q] to stop, [?] for help\n[libx265 @ 0000014bb7882c00] Unknown option: \"aq-mode.\nx265 [info]: HEVC encoder version 4.1+190-8f11c33ac\nx265 [info]: build info [Windows][GCC 15.1.0][64 bit] 10bit\nx265 [info]: using cpu capabilities: MMX2 SSE2Fast LZCNT SSSE3 SSE4.2 AVX FMA3 BMI2 AVX2\nx265 [info]: Main 10 profile, Level-4.1 (Main tier)\nx265 [info]: Thread pool created using 12 threads\nx265 [info]: Slices                              : 1\nx265 [info]: frame threads / pool features       : 3 / wpp(17 rows)\nx265 [info]: Coding QT: max CU size, min CU size : 64 / 8\nx265 [info]: Residual QT: max TU size, max depth : 32 / 1 inter / 1 intra\nx265 [info]: ME / range / subpel / merge         : star / 57 / 3 / 3\nx265 [info]: Keyframe min / max / scenecut / bias  : 25 / 250 / 40 / 5.00 \nx265 [info]: Lookahead / bframes / badapt        : 25 / 4 / 2\nx265 [info]: b-pyramid / weightp / weightb       : 1 / 1 / 0\nx265 [info]: References / ref-limit  cu / depth  : 4 / on / on\nx265 [info]: AQ: mode / str / qg-size / cu-tree  : 2 / 1.0 / 32 / 1\nx265 [info]: Rate Control / qCompress            : ABR-1000 kbps / 0.60\nx265 [info]: VBV/HRD buffer / max-rate / init    : 1000 / 1000 / 0.750\nx265 [info]: tools: rect limit-modes rd=4 psy-rd=2.00 rdoq=2 psy-rdoq=1.00\nx265 [info]: tools: rskip mode=1 signhide tmvp strong-intra-smoothing lslices=4\nx265 [info]: tools: deblock sao dhdr10-info\nOutput #0, mp4, to 'C:\\Users\\Peter\\Desktop\\stuff\\MIUN\\quantitative_research\\video_compression\\compressed_videos\\BVI-HD\\hevc\\1\\PlasmaAveragePan_1920x1080_60fps_hevc.mp4':\n  Metadata:\n    major_brand     : isom\n    minor_version   : 512\n    compatible_brands: isomiso2avc1mp41\n    encoder         : Lavf62.3.100\n  Stream #0:0(und): Video: hevc (hev1 / 0x31766568), yuv420p10le(tv, progressive), 1920x1080, q=2-31, 1000 kb/s, 60 fps, 15360 tbn (default)\n    Metadata:\n      encoder         : Lavc62.11.100 libx265\n      handler_name    : VideoHandler\n      vendor_id       : [0][0][0][0]\n    Side data:\n      cpb: bitrate max/min/avg: 1000000/0/1000000 buffer size: 1000000 vbv_delay: N/A\nframe=    0 fps=0.0 q=0.0 size=       0KiB time=N/A bitrate=N/A speed=N/A elapsed=0:00:00.51    \nframe=    0 fps=0.0 q=0.0 size=       0KiB time=N/A bitrate=N/A speed=N/A elapsed=0:00:01.07    \nframe=    0 fps=0.0 q=0.0 size=       0KiB time=N/A bitrate=N/A speed=N/A elapsed=0:00:01.59    \nframe=    0 fps=0.0 q=0.0 size=       0KiB time=N/A bitrate=N/A speed=N/A elapsed=0:00:02.11    \nframe=    0 fps=0.0 q=0.0 size=       0KiB time=N/A bitrate=N/A speed=N/A elapsed=0:00:02.66    \nframe=    0 fps=0.0 q=0.0 size=       0KiB time=N/A bitrate=N/A speed=N/A elapsed=0:00:03.19    \nframe=    0 fps=0.0 q=0.0 size=       0KiB time=N/A bitrate=N/A speed=N/A elapsed=0:00:03.73    \nframe=    0 fps=0.0 q=0.0 size=       0KiB time=N/A bitrate=N/A speed=N/A elapsed=0:00:04.25    \nframe=    0 fps=0.0 q=0.0 size=       0KiB time=N/A bitrate=N/A speed=N/A elapsed=0:00:04.78    \nframe=    0 fps=0.0 q=0.0 size=       0KiB time=N/A bitrate=N/A speed=N/A elapsed=0:00:05.33    \nframe=    1 fps=0.2 q=47.8 size=       0KiB time=-00:00:00.01 bitrate=N/A speed=N/A elapsed=0:00:05.85    \nframe=    3 fps=0.5 q=51.0 size=       0KiB time=00:00:00.01 bitrate=  21.1kbits/s speed=0.00261x elapsed=0:00:06.38    \nframe=    4 fps=0.6 q=50.9 size=       0KiB time=00:00:00.03 bitrate=  10.6kbits/s speed=0.00483x elapsed=0:00:06.90    \nframe=    5 fps=0.7 q=50.9 size=       0KiB time=00:00:00.05 bitrate=   7.0kbits/s speed=0.00673x elapsed=0:00:07.43    \nframe=    5 fps=0.6 q=50.9 size=       0KiB time=00:00:00.05 bitrate=   7.0kbits/s speed=0.00629x elapsed=0:00:07.94    \nframe=    6 fps=0.7 q=50.4 size=       0KiB time=00:00:00.06 bitrate=   5.3kbits/s speed=0.00784x elapsed=0:00:08.50    \nframe=    7 fps=0.8 q=48.5 size=       0KiB time=00:00:00.08 bitrate=   4.2kbits/s speed=0.00924x elapsed=0:00:09.02    \nframe=    8 fps=0.8 q=49.6 size=       0KiB time=00:00:00.10 bitrate=   3.5kbits/s speed=0.0105x elapsed=0:00:09.55    \nframe=    8 fps=0.8 q=49.6 size=       0KiB time=00:00:00.10 bitrate=   3.5kbits/s speed=0.00992x elapsed=0:00:10.07    \nframe=    9 fps=0.8 q=46.5 size=       0KiB time=00:00:00.11 bitrate=   3.0kbits/s speed=0.011x elapsed=0:00:10.59    \nframe=   11 fps=1.0 q=43.7 size=       0KiB time=00:00:00.15 bitrate=   2.3kbits/s speed=0.0135x elapsed=0:00:11.11    \nframe=   12 fps=1.0 q=47.1 size=       0KiB time=00:00:00.16 bitrate=   2.1kbits/s speed=0.0143x elapsed=0:00:11.63    \nframe=   12 fps=1.0 q=47.1 size=       0KiB time=00:00:00.16 bitrate=   2.1kbits/s speed=0.0137x elapsed=0:00:12.15    \nframe=   13 fps=1.0 q=47.3 size=       0KiB time=00:00:00.18 bitrate=   1.9kbits/s speed=0.0145x elapsed=0:00:12.66    \nframe=   14 fps=1.1 q=47.4 size=       0KiB time=00:00:00.20 bitrate=   1.8kbits/s speed=0.0152x elapsed=0:00:13.18    \nframe=   15 fps=1.1 q=44.7 size=       0KiB time=00:00:00.21 bitrate=   1.6kbits/s speed=0.0158x elapsed=0:00:13.71    \nframe=   15 fps=1.1 q=44.7 size=       0KiB time=00:00:00.21 bitrate=   1.6kbits/s speed=0.0152x elapsed=0:00:14.23    \nframe=   16 fps=1.1 q=45.9 size=       0KiB time=00:00:00.23 bitrate=   1.5kbits/s speed=0.0158x elapsed=0:00:14.74    \nframe=   17 fps=1.1 q=47.3 size=       0KiB time=00:00:00.25 bitrate=   1.4kbits/s speed=0.0164x elapsed=0:00:15.26    \nframe=   18 fps=1.1 q=43.9 size=       0KiB time=00:00:00.26 bitrate=   1.3kbits/s speed=0.0169x elapsed=0:00:15.78    \nframe=   18 fps=1.1 q=43.9 size=       0KiB time=00:00:00.26 bitrate=   1.3kbits/s speed=0.0163x elapsed=0:00:16.31    \nframe=   19 fps=1.1 q=45.9 size=       0KiB time=00:00:00.28 bitrate=   1.2kbits/s speed=0.0168x elapsed=0:00:16.82    \nframe=   19 fps=1.1 q=45.9 size=       0KiB time=00:00:00.28 bitrate=   1.2kbits/s speed=0.0163x elapsed=0:00:17.33    \nframe=   20 fps=1.1 q=46.2 size=       0KiB time=00:00:00.30 bitrate=   1.2kbits/s speed=0.0168x elapsed=0:00:17.85    \nframe=   21 fps=1.1 q=42.4 size=       0KiB time=00:00:00.31 bitrate=   1.1kbits/s speed=0.0172x elapsed=0:00:18.37    \nframe=   21 fps=1.1 q=42.4 size=       0KiB time=00:00:00.31 bitrate=   1.1kbits/s speed=0.0168x elapsed=0:00:18.88    \nframe=   22 fps=1.1 q=44.7 size=       0KiB time=00:00:00.33 bitrate=   1.1kbits/s speed=0.0172x elapsed=0:00:19.40    \nframe=   23 fps=1.2 q=45.3 size=       0KiB time=00:00:00.35 bitrate=   1.0kbits/s speed=0.0176x elapsed=0:00:19.92    \nframe=   24 fps=1.2 q=45.3 size=       0KiB time=00:00:00.36 bitrate=   1.0kbits/s speed=0.0179x elapsed=0:00:20.45    \nframe=   25 fps=1.2 q=42.2 size=       0KiB time=00:00:00.38 bitrate=   0.9kbits/s speed=0.0183x elapsed=0:00:20.98    \nframe=   25 fps=1.2 q=42.2 size=       0KiB time=00:00:00.38 bitrate=   0.9kbits/s speed=0.0178x elapsed=0:00:21.50    \nframe=   27 fps=1.2 q=46.1 size=       0KiB time=00:00:00.41 bitrate=   0.8kbits/s speed=0.0189x elapsed=0:00:22.02    \nframe=   27 fps=1.2 q=46.1 size=       0KiB time=00:00:00.41 bitrate=   0.8kbits/s speed=0.0185x elapsed=0:00:22.55    \nframe=   28 fps=1.2 q=45.1 size=       0KiB time=00:00:00.43 bitrate=   0.8kbits/s speed=0.0188x elapsed=0:00:23.07    \nframe=   28 fps=1.2 q=45.1 size=       0KiB time=00:00:00.43 bitrate=   0.8kbits/s speed=0.0184x elapsed=0:00:23.59    \nframe=   29 fps=1.2 q=45.3 size=       0KiB time=00:00:00.45 bitrate=   0.8kbits/s speed=0.0187x elapsed=0:00:24.11    \nframe=   29 fps=1.2 q=45.3 size=       0KiB time=00:00:00.45 bitrate=   0.8kbits/s speed=0.0183x elapsed=0:00:24.63    \nframe=   30 fps=1.2 q=42.1 size=       0KiB time=00:00:00.46 bitrate=   0.8kbits/s speed=0.0185x elapsed=0:00:25.16    \nframe=   31 fps=1.2 q=44.0 size=       0KiB time=00:00:00.48 bitrate=   0.7kbits/s speed=0.0188x elapsed=0:00:25.69    \nframe=   32 fps=1.2 q=45.3 size=       0KiB time=00:00:00.50 bitrate=   0.7kbits/s speed=0.0191x elapsed=0:00:26.23    \nframe=   32 fps=1.2 q=45.3 size=       0KiB time=00:00:00.50 bitrate=   0.7kbits/s speed=0.0187x elapsed=0:00:26.76    \nframe=   33 fps=1.2 q=45.2 size=       0KiB time=00:00:00.51 bitrate=   0.7kbits/s speed=0.0189x elapsed=0:00:27.28    \nframe=   33 fps=1.2 q=45.2 size=       0KiB time=00:00:00.51 bitrate=   0.7kbits/s speed=0.0186x elapsed=0:00:27.81    \nframe=   34 fps=1.2 q=45.1 size=       0KiB time=00:00:00.53 bitrate=   0.7kbits/s speed=0.0188x elapsed=0:00:28.33    \nframe=   34 fps=1.2 q=45.1 size=       0KiB time=00:00:00.53 bitrate=   0.7kbits/s speed=0.0185x elapsed=0:00:28.86    \nframe=   35 fps=1.2 q=42.9 size=       0KiB time=00:00:00.55 bitrate=   0.6kbits/s speed=0.0187x elapsed=0:00:29.41    \nframe=   36 fps=1.2 q=44.2 size=       0KiB time=00:00:00.56 bitrate=   0.6kbits/s speed=0.0189x elapsed=0:00:29.94    \nframe=   36 fps=1.2 q=44.2 size=       0KiB time=00:00:00.56 bitrate=   0.6kbits/s speed=0.0186x elapsed=0:00:30.49    \nframe=   36 fps=1.2 q=44.2 size=       0KiB time=00:00:00.56 bitrate=   0.6kbits/s speed=0.0183x elapsed=0:00:31.03    \nframe=   37 fps=1.2 q=45.8 size=       0KiB time=00:00:00.58 bitrate=   0.6kbits/s speed=0.0185x elapsed=0:00:31.56    \nframe=   38 fps=1.2 q=45.9 size=       0KiB time=00:00:00.60 bitrate=   0.6kbits/s speed=0.0187x elapsed=0:00:32.08    \nframe=   39 fps=1.2 q=43.2 size=       0KiB time=00:00:00.61 bitrate=   0.6kbits/s speed=0.0189x elapsed=0:00:32.61    \nframe=   40 fps=1.2 q=44.5 size=       0KiB time=00:00:00.63 bitrate=   0.6kbits/s speed=0.0191x elapsed=0:00:33.15    \nframe=   40 fps=1.2 q=44.5 size=       0KiB time=00:00:00.63 bitrate=   0.6kbits/s speed=0.0188x elapsed=0:00:33.66    \nframe=   41 fps=1.2 q=46.2 size=       0KiB time=00:00:00.65 bitrate=   0.5kbits/s speed=0.019x elapsed=0:00:34.19    \nframe=   42 fps=1.2 q=45.9 size=       0KiB time=00:00:00.66 bitrate=   0.5kbits/s speed=0.0192x elapsed=0:00:34.71    \nframe=   43 fps=1.2 q=43.5 size=       0KiB time=00:00:00.68 bitrate=   0.5kbits/s speed=0.0194x elapsed=0:00:35.23    \nframe=   44 fps=1.2 q=44.5 size=       0KiB time=00:00:00.70 bitrate=   0.5kbits/s speed=0.0196x elapsed=0:00:35.75    \nframe=   44 fps=1.2 q=44.5 size=       0KiB time=00:00:00.70 bitrate=   0.5kbits/s speed=0.0193x elapsed=0:00:36.25    \nframe=   45 fps=1.2 q=46.0 size=       0KiB time=00:00:00.71 bitrate=   0.5kbits/s speed=0.0195x elapsed=0:00:36.77    \nframe=   46 fps=1.2 q=42.3 size=       0KiB time=00:00:00.73 bitrate=   0.5kbits/s speed=0.0197x elapsed=0:00:37.30    \nframe=   47 fps=1.2 q=44.3 size=       0KiB time=00:00:00.75 bitrate=   0.5kbits/s speed=0.0198x elapsed=0:00:37.80    \nframe=   48 fps=1.3 q=45.9 size=       0KiB time=00:00:00.76 bitrate=   0.5kbits/s speed=0.02x elapsed=0:00:38.33    \nframe=   48 fps=1.2 q=45.9 size=       0KiB time=00:00:00.76 bitrate=   0.5kbits/s speed=0.0197x elapsed=0:00:38.83    \nframe=   49 fps=1.2 q=45.3 size=       0KiB time=00:00:00.78 bitrate=   0.4kbits/s speed=0.0199x elapsed=0:00:39.35    \nframe=   50 fps=1.3 q=42.7 size=       0KiB time=00:00:00.80 bitrate=   0.4kbits/s speed=0.0201x elapsed=0:00:39.87    \nframe=   51 fps=1.3 q=44.1 size=       0KiB time=00:00:00.81 bitrate=   0.4kbits/s speed=0.0202x elapsed=0:00:40.39    \nframe=   52 fps=1.3 q=45.9 size=       0KiB time=00:00:00.83 bitrate=   0.4kbits/s speed=0.0204x elapsed=0:00:40.91    \nframe=   53 fps=1.3 q=45.8 size=       0KiB time=00:00:00.85 bitrate=   0.4kbits/s speed=0.0205x elapsed=0:00:41.44    \nframe=   53 fps=1.3 q=45.8 size=       0KiB time=00:00:00.85 bitrate=   0.4kbits/s speed=0.0202x elapsed=0:00:41.97    \nframe=   55 fps=1.3 q=44.5 size=       0KiB time=00:00:00.88 bitrate=   0.4kbits/s speed=0.0208x elapsed=0:00:42.49    \nframe=   55 fps=1.3 q=44.5 size=       0KiB time=00:00:00.88 bitrate=   0.4kbits/s speed=0.0205x elapsed=0:00:43.03    \nframe=   56 fps=1.3 q=45.9 size=       0KiB time=00:00:00.90 bitrate=   0.4kbits/s speed=0.0207x elapsed=0:00:43.53    \nframe=   57 fps=1.3 q=46.0 size=       0KiB time=00:00:00.91 bitrate=   0.4kbits/s speed=0.0208x elapsed=0:00:44.05    \nframe=   57 fps=1.3 q=46.0 size=       0KiB time=00:00:00.91 bitrate=   0.4kbits/s speed=0.0206x elapsed=0:00:44.57    \nframe=   59 fps=1.3 q=44.2 size=       0KiB time=00:00:00.95 bitrate=   0.4kbits/s speed=0.0211x elapsed=0:00:45.09    \nframe=   59 fps=1.3 q=44.2 size=       0KiB time=00:00:00.95 bitrate=   0.4kbits/s speed=0.0208x elapsed=0:00:45.62    \nframe=   59 fps=1.3 q=44.2 size=       0KiB time=00:00:00.95 bitrate=   0.4kbits/s speed=0.0206x elapsed=0:00:46.14    \nframe=   60 fps=1.3 q=45.9 size=       0KiB time=00:00:00.96 bitrate=   0.4kbits/s speed=0.0207x elapsed=0:00:46.66    \nframe=   60 fps=1.3 q=45.9 size=       0KiB time=00:00:00.96 bitrate=   0.4kbits/s speed=0.0205x elapsed=0:00:47.18    \nframe=   61 fps=1.3 q=46.0 size=       0KiB time=00:00:00.98 bitrate=   0.4kbits/s speed=0.0206x elapsed=0:00:47.69    \nframe=   62 fps=1.3 q=42.6 size=       0KiB time=00:00:01.00 bitrate=   0.4kbits/s speed=0.0207x elapsed=0:00:48.21    \nframe=   63 fps=1.3 q=43.9 size=       0KiB time=00:00:01.01 bitrate=   0.3kbits/s speed=0.0209x elapsed=0:00:48.73    \nframe=   63 fps=1.3 q=43.9 size=       0KiB time=00:00:01.01 bitrate=   0.3kbits/s speed=0.0206x elapsed=0:00:49.24    \nframe=   64 fps=1.3 q=46.0 size=       0KiB time=00:00:01.03 bitrate=   0.3kbits/s speed=0.0208x elapsed=0:00:49.75    \nframe=   64 fps=1.3 q=46.0 size=       0KiB time=00:00:01.03 bitrate=   0.3kbits/s speed=0.0206x elapsed=0:00:50.27    \nframe=   66 fps=1.3 q=42.3 size=       0KiB time=00:00:01.06 bitrate=   0.3kbits/s speed=0.021x elapsed=0:00:50.79    \nframe=   67 fps=1.3 q=44.2 size=       0KiB time=00:00:01.08 bitrate=   0.3kbits/s speed=0.0211x elapsed=0:00:51.30    \nframe=   68 fps=1.3 q=45.9 size=       0KiB time=00:00:01.10 bitrate=   0.3kbits/s speed=0.0212x elapsed=0:00:51.82    \nframe=   68 fps=1.3 q=45.9 size=       0KiB time=00:00:01.10 bitrate=   0.3kbits/s speed=0.021x elapsed=0:00:52.33    \nframe=   70 fps=1.3 q=42.5 size=       0KiB time=00:00:01.13 bitrate=   0.3kbits/s speed=0.0214x elapsed=0:00:52.85    \nframe=   71 fps=1.3 q=44.6 size=       0KiB time=00:00:01.15 bitrate=   0.3kbits/s speed=0.0215x elapsed=0:00:53.37    \nframe=   72 fps=1.3 q=46.0 size=       0KiB time=00:00:01.16 bitrate=   0.3kbits/s speed=0.0217x elapsed=0:00:53.88    \nframe=   73 fps=1.3 q=46.2 size=       0KiB time=00:00:01.18 bitrate=   0.3kbits/s speed=0.0218x elapsed=0:00:54.39    \nframe=   73 fps=1.3 q=46.2 size=       0KiB time=00:00:01.18 bitrate=   0.3kbits/s speed=0.0215x elapsed=0:00:54.92    \nframe=   73 fps=1.3 q=46.2 size=       0KiB time=00:00:01.18 bitrate=   0.3kbits/s speed=0.0213x elapsed=0:00:55.42    \nframe=   74 fps=1.3 q=42.5 size=       0KiB time=00:00:01.20 bitrate=   0.3kbits/s speed=0.0214x elapsed=0:00:55.94    \nframe=   75 fps=1.3 q=44.7 size=       0KiB time=00:00:01.21 bitrate=   0.3kbits/s speed=0.0215x elapsed=0:00:56.47    \nframe=   76 fps=1.3 q=45.9 size=       0KiB time=00:00:01.23 bitrate=   0.3kbits/s speed=0.0216x elapsed=0:00:56.97    \nframe=   77 fps=1.3 q=45.8 size=       0KiB time=00:00:01.25 bitrate=   0.3kbits/s speed=0.0217x elapsed=0:00:57.50    \nframe=   78 fps=1.3 q=46.0 size=       0KiB time=00:00:01.26 bitrate=   0.3kbits/s speed=0.0218x elapsed=0:00:58.02    \nframe=   79 fps=1.3 q=42.9 size=       0KiB time=00:00:01.28 bitrate=   0.3kbits/s speed=0.0219x elapsed=0:00:58.54    \nframe=   80 fps=1.4 q=44.2 size=       0KiB time=00:00:01.30 bitrate=   0.3kbits/s speed=0.022x elapsed=0:00:59.07    \nframe=   81 fps=1.4 q=46.1 size=       0KiB time=00:00:01.31 bitrate=   0.3kbits/s speed=0.0221x elapsed=0:00:59.58    \nframe=   82 fps=1.4 q=46.0 size=       0KiB time=00:00:01.33 bitrate=   0.3kbits/s speed=0.0222x elapsed=0:01:00.10    \nframe=   82 fps=1.4 q=46.0 size=       0KiB time=00:00:01.33 bitrate=   0.3kbits/s speed=0.022x elapsed=0:01:00.62    \nframe=   84 fps=1.4 q=44.3 size=       0KiB time=00:00:01.36 bitrate=   0.3kbits/s speed=0.0224x elapsed=0:01:01.13    \nframe=   84 fps=1.4 q=44.3 size=       0KiB time=00:00:01.36 bitrate=   0.3kbits/s speed=0.0222x elapsed=0:01:01.65    \nframe=   85 fps=1.4 q=45.8 size=       0KiB time=00:00:01.38 bitrate=   0.3kbits/s speed=0.0222x elapsed=0:01:02.19    \nframe=   85 fps=1.4 q=45.8 size=       0KiB time=00:00:01.38 bitrate=   0.3kbits/s speed=0.0221x elapsed=0:01:02.72    \nframe=   86 fps=1.4 q=45.8 size=       0KiB time=00:00:01.40 bitrate=   0.3kbits/s speed=0.0221x elapsed=0:01:03.25    \nframe=   87 fps=1.4 q=42.8 size=       0KiB time=00:00:01.41 bitrate=   0.2kbits/s speed=0.0222x elapsed=0:01:03.77    \nframe=   88 fps=1.4 q=44.5 size=       0KiB time=00:00:01.43 bitrate=   0.2kbits/s speed=0.0223x elapsed=0:01:04.28    \nframe=   89 fps=1.4 q=45.9 size=       0KiB time=00:00:01.45 bitrate=   0.2kbits/s speed=0.0224x elapsed=0:01:04.81    \nframe=   89 fps=1.4 q=45.9 size=       0KiB time=00:00:01.45 bitrate=   0.2kbits/s speed=0.0222x elapsed=0:01:05.32    \nframe=   89 fps=1.4 q=45.9 size=       0KiB time=00:00:01.45 bitrate=   0.2kbits/s speed=0.022x elapsed=0:01:05.85    \nframe=   89 fps=1.3 q=45.9 size=       0KiB time=00:00:01.45 bitrate=   0.2kbits/s speed=0.0218x elapsed=0:01:06.37    \nframe=   89 fps=1.3 q=45.9 size=       0KiB time=00:00:01.45 bitrate=   0.2kbits/s speed=0.0217x elapsed=0:01:06.90    \nframe=   90 fps=1.3 q=45.8 size=       0KiB time=00:00:01.46 bitrate=   0.2kbits/s speed=0.0218x elapsed=0:01:07.41    \nframe=   90 fps=1.3 q=45.8 size=       0KiB time=00:00:01.46 bitrate=   0.2kbits/s speed=0.0216x elapsed=0:01:07.95    \nframe=   91 fps=1.3 q=43.0 size=       0KiB time=00:00:01.48 bitrate=   0.2kbits/s speed=0.0217x elapsed=0:01:08.46    \nframe=   91 fps=1.3 q=43.0 size=       0KiB time=00:00:01.48 bitrate=   0.2kbits/s speed=0.0215x elapsed=0:01:08.98    \nframe=   92 fps=1.3 q=44.5 size=       0KiB time=00:00:01.50 bitrate=   0.2kbits/s speed=0.0216x elapsed=0:01:09.51    \nframe=   92 fps=1.3 q=44.5 size=       0KiB time=00:00:01.50 bitrate=   0.2kbits/s speed=0.0214x elapsed=0:01:10.04    \nframe=   93 fps=1.3 q=46.2 size=       0KiB time=00:00:01.51 bitrate=   0.2kbits/s speed=0.0215x elapsed=0:01:10.56    \nframe=   93 fps=1.3 q=46.2 size=       0KiB time=00:00:01.51 bitrate=   0.2kbits/s speed=0.0213x elapsed=0:01:11.08    \nframe=   93 fps=1.3 q=46.2 size=       0KiB time=00:00:01.51 bitrate=   0.2kbits/s speed=0.0212x elapsed=0:01:11.63    \nframe=   94 fps=1.3 q=45.8 size=       0KiB time=00:00:01.51 bitrate=   0.2kbits/s speed=0.021x elapsed=0:01:12.15    \nframe=   94 fps=1.3 q=45.8 size=       0KiB time=00:00:01.53 bitrate=   0.2kbits/s speed=0.0211x elapsed=0:01:12.69    \nframe=   95 fps=1.3 q=42.6 size=       0KiB time=00:00:01.55 bitrate=   0.2kbits/s speed=0.0212x elapsed=0:01:13.23    \nframe=   96 fps=1.3 q=44.6 size=       0KiB time=00:00:01.55 bitrate=   0.2kbits/s speed=0.021x elapsed=0:01:13.78    \nframe=   96 fps=1.3 q=44.6 size=       0KiB time=00:00:01.56 bitrate=   0.2kbits/s speed=0.0211x elapsed=0:01:14.37    \nframe=   97 fps=1.3 q=46.0 size=       0KiB time=00:00:01.58 bitrate=   0.2kbits/s speed=0.0211x elapsed=0:01:14.91    \nframe=   98 fps=1.3 q=45.7 size=       0KiB time=00:00:01.60 bitrate=   0.2kbits/s speed=0.0212x elapsed=0:01:15.43    \nframe=   98 fps=1.3 q=45.7 size=       0KiB time=00:00:01.60 bitrate=   0.2kbits/s speed=0.0211x elapsed=0:01:15.94    \nframe=   98 fps=1.3 q=45.7 size=       0KiB time=00:00:01.60 bitrate=   0.2kbits/s speed=0.0209x elapsed=0:01:16.46    \nframe=   98 fps=1.3 q=45.7 size=       0KiB time=00:00:01.60 bitrate=   0.2kbits/s speed=0.0208x elapsed=0:01:16.98    \nframe=   99 fps=1.3 q=42.8 size=       0KiB time=00:00:01.61 bitrate=   0.2kbits/s speed=0.0209x elapsed=0:01:17.50    \nframe=  100 fps=1.3 q=46.0 size=       0KiB time=00:00:01.63 bitrate=   0.2kbits/s speed=0.0209x elapsed=0:01:18.02    \nframe=  101 fps=1.3 q=42.5 size=       0KiB time=00:00:01.65 bitrate=   0.2kbits/s speed=0.021x elapsed=0:01:18.54    \nframe=  102 fps=1.3 q=44.4 size=       0KiB time=00:00:01.66 bitrate=   0.2kbits/s speed=0.0211x elapsed=0:01:19.05    \nframe=  102 fps=1.3 q=44.4 size=       0KiB time=00:00:01.66 bitrate=   0.2kbits/s speed=0.0209x elapsed=0:01:19.58    \nframe=  103 fps=1.3 q=45.6 size=       0KiB time=00:00:01.68 bitrate=   0.2kbits/s speed=0.021x elapsed=0:01:20.11    \nframe=  103 fps=1.3 q=45.6 size=       0KiB time=00:00:01.68 bitrate=   0.2kbits/s speed=0.0209x elapsed=0:01:20.61    \nframe=  105 fps=1.3 q=42.3 size=       0KiB time=00:00:01.71 bitrate=   0.2kbits/s speed=0.0212x elapsed=0:01:21.14    \nframe=  106 fps=1.3 q=44.6 size=       0KiB time=00:00:01.73 bitrate=   0.2kbits/s speed=0.0212x elapsed=0:01:21.65    \nframe=  106 fps=1.3 q=44.6 size=       0KiB time=00:00:01.73 bitrate=   0.2kbits/s speed=0.0211x elapsed=0:01:22.18    \nframe=  107 fps=1.3 q=45.8 size=       0KiB time=00:00:01.75 bitrate=   0.2kbits/s speed=0.0212x elapsed=0:01:22.70    \nframe=  108 fps=1.3 q=45.9 size=       0KiB time=00:00:01.76 bitrate=   0.2kbits/s speed=0.0212x elapsed=0:01:23.22    \nframe=  109 fps=1.3 q=43.2 size=       0KiB time=00:00:01.78 bitrate=   0.2kbits/s speed=0.0213x elapsed=0:01:23.72    \nframe=  110 fps=1.3 q=44.5 size=       0KiB time=00:00:01.80 bitrate=   0.2kbits/s speed=0.0214x elapsed=0:01:24.25    \nframe=  110 fps=1.3 q=44.5 size=       0KiB time=00:00:01.80 bitrate=   0.2kbits/s speed=0.0212x elapsed=0:01:24.78    \nframe=  110 fps=1.3 q=44.5 size=       0KiB time=00:00:01.80 bitrate=   0.2kbits/s speed=0.0211x elapsed=0:01:25.28    \nframe=  111 fps=1.3 q=45.9 size=       0KiB time=00:00:01.81 bitrate=   0.2kbits/s speed=0.0212x elapsed=0:01:25.82    \nframe=  112 fps=1.3 q=45.9 size=       0KiB time=00:00:01.83 bitrate=   0.2kbits/s speed=0.0212x elapsed=0:01:26.34    \nframe=  113 fps=1.3 q=43.4 size=       0KiB time=00:00:01.85 bitrate=   0.2kbits/s speed=0.0213x elapsed=0:01:26.85    \nframe=  114 fps=1.3 q=44.5 size=       0KiB time=00:00:01.86 bitrate=   0.2kbits/s speed=0.0214x elapsed=0:01:27.37    \nframe=  114 fps=1.3 q=44.5 size=       0KiB time=00:00:01.86 bitrate=   0.2kbits/s speed=0.0212x elapsed=0:01:27.89    \nframe=  115 fps=1.3 q=46.0 size=       0KiB time=00:00:01.88 bitrate=   0.2kbits/s speed=0.0213x elapsed=0:01:28.43    \nframe=  115 fps=1.3 q=46.0 size=       0KiB time=00:00:01.88 bitrate=   0.2kbits/s speed=0.0212x elapsed=0:01:28.95    \nframe=  116 fps=1.3 q=46.1 size=       0KiB time=00:00:01.90 bitrate=   0.2kbits/s speed=0.0212x elapsed=0:01:29.47    \nframe=  117 fps=1.3 q=43.5 size=       0KiB time=00:00:01.91 bitrate=   0.2kbits/s speed=0.0213x elapsed=0:01:30.03    \nframe=  118 fps=1.3 q=44.8 size=       0KiB time=00:00:01.93 bitrate=   0.2kbits/s speed=0.0214x elapsed=0:01:30.54    \nframe=  120 fps=1.3 q=46.2 size=       0KiB time=00:00:01.96 bitrate=   0.2kbits/s speed=0.0216x elapsed=0:01:31.06    \nframe=  120 fps=1.3 q=46.2 size=       0KiB time=00:00:01.96 bitrate=   0.2kbits/s speed=0.0215x elapsed=0:01:31.60    \nframe=  122 fps=1.3 q=44.9 size=       0KiB time=00:00:02.00 bitrate=   0.2kbits/s speed=0.0217x elapsed=0:01:32.12    \nframe=  124 fps=1.3 q=46.3 size=       0KiB time=00:00:02.03 bitrate=   0.2kbits/s speed=0.022x elapsed=0:01:32.63    \nframe=  125 fps=1.3 q=43.7 size=       0KiB time=00:00:02.05 bitrate=   0.2kbits/s speed=0.022x elapsed=0:01:33.15    \nframe=  125 fps=1.3 q=43.7 size=       0KiB time=00:00:02.05 bitrate=   0.2kbits/s speed=0.0219x elapsed=0:01:33.69    \nframe=  127 fps=1.3 q=46.2 size=       0KiB time=00:00:02.08 bitrate=   0.2kbits/s speed=0.0221x elapsed=0:01:34.20    \nframe=  128 fps=1.4 q=46.3 size=       0KiB time=00:00:02.10 bitrate=   0.2kbits/s speed=0.0222x elapsed=0:01:34.73    \nframe=  128 fps=1.3 q=46.3 size=       0KiB time=00:00:02.10 bitrate=   0.2kbits/s speed=0.022x elapsed=0:01:35.23    \nframe=  129 fps=1.3 q=43.7 size=       0KiB time=00:00:02.11 bitrate=   0.2kbits/s speed=0.0221x elapsed=0:01:35.76    \nframe=  129 fps=1.3 q=43.7 size=       0KiB time=00:00:02.11 bitrate=   0.2kbits/s speed=0.022x elapsed=0:01:36.30    \nframe=  132 fps=1.4 q=46.4 size=     256KiB time=00:00:02.16 bitrate= 968.1kbits/s speed=0.0224x elapsed=0:01:36.80    \nframe=  132 fps=1.4 q=46.4 size=     256KiB time=00:00:02.16 bitrate= 968.1kbits/s speed=0.0223x elapsed=0:01:37.31    \nframe=  132 fps=1.3 q=46.4 size=     256KiB time=00:00:02.16 bitrate= 968.1kbits/s speed=0.0221x elapsed=0:01:37.84    \nframe=  134 fps=1.4 q=45.0 size=     256KiB time=00:00:02.20 bitrate= 953.4kbits/s speed=0.0224x elapsed=0:01:38.35    \nframe=  134 fps=1.4 q=45.0 size=     256KiB time=00:00:02.20 bitrate= 953.4kbits/s speed=0.0222x elapsed=0:01:38.88    \nframe=  136 fps=1.4 q=46.5 size=     256KiB time=00:00:02.23 bitrate= 939.2kbits/s speed=0.0225x elapsed=0:01:39.41    \nframe=  136 fps=1.4 q=46.5 size=     256KiB time=00:00:02.23 bitrate= 939.2kbits/s speed=0.0223x elapsed=0:01:39.92    \nframe=  137 fps=1.4 q=43.8 size=     256KiB time=00:00:02.25 bitrate= 932.2kbits/s speed=0.0224x elapsed=0:01:40.45    \nframe=  137 fps=1.4 q=43.8 size=     256KiB time=00:00:02.25 bitrate= 932.2kbits/s speed=0.0223x elapsed=0:01:41.05    \nframe=  138 fps=1.4 q=45.1 size=     256KiB time=00:00:02.26 bitrate= 925.4kbits/s speed=0.0223x elapsed=0:01:41.57    \nframe=  138 fps=1.4 q=45.1 size=     256KiB time=00:00:02.26 bitrate= 925.4kbits/s speed=0.0222x elapsed=0:01:42.10    \nframe=  140 fps=1.4 q=46.5 size=     256KiB time=00:00:02.30 bitrate= 912.0kbits/s speed=0.0224x elapsed=0:01:42.62    \nframe=  140 fps=1.4 q=46.5 size=     256KiB time=00:00:02.30 bitrate= 912.0kbits/s speed=0.0223x elapsed=0:01:43.15    \nframe=  141 fps=1.4 q=44.0 size=     256KiB time=00:00:02.30 bitrate= 912.0kbits/s speed=0.0222x elapsed=0:01:43.66    \nframe=  142 fps=1.4 q=45.1 size=     256KiB time=00:00:02.33 bitrate= 898.9kbits/s speed=0.0224x elapsed=0:01:44.23    \nframe=  143 fps=1.4 q=46.5 size=     256KiB time=00:00:02.35 bitrate= 892.6kbits/s speed=0.0224x elapsed=0:01:44.76    \nframe=  143 fps=1.4 q=46.5 size=     256KiB time=00:00:02.35 bitrate= 892.6kbits/s speed=0.0223x elapsed=0:01:45.28    \nframe=  145 fps=1.4 q=44.1 size=     256KiB time=00:00:02.38 bitrate= 880.1kbits/s speed=0.0225x elapsed=0:01:45.79    \nframe=  146 fps=1.4 q=45.2 size=     256KiB time=00:00:02.40 bitrate= 874.0kbits/s speed=0.0226x elapsed=0:01:46.31    \nframe=  148 fps=1.4 q=46.6 size=     256KiB time=00:00:02.43 bitrate= 862.0kbits/s speed=0.0228x elapsed=0:01:46.84    \nframe=  149 fps=1.4 q=44.0 size=     256KiB time=00:00:02.45 bitrate= 856.1kbits/s speed=0.0228x elapsed=0:01:47.36    \nframe=  149 fps=1.4 q=44.0 size=     256KiB time=00:00:02.45 bitrate= 856.1kbits/s speed=0.0227x elapsed=0:01:47.89    \nframe=  149 fps=1.4 q=44.0 size=     256KiB time=00:00:02.45 bitrate= 856.1kbits/s speed=0.0226x elapsed=0:01:48.42    \nframe=  150 fps=1.4 q=45.3 size=     256KiB time=00:00:02.46 bitrate= 850.3kbits/s speed=0.0226x elapsed=0:01:48.95    \nframe=  151 fps=1.4 q=46.5 size=     256KiB time=00:00:02.48 bitrate= 844.6kbits/s speed=0.0227x elapsed=0:01:49.46    \nframe=  152 fps=1.4 q=46.6 size=     256KiB time=00:00:02.50 bitrate= 839.0kbits/s speed=0.0227x elapsed=0:01:49.98    \nframe=  154 fps=1.4 q=45.4 size=     256KiB time=00:00:02.53 bitrate= 828.0kbits/s speed=0.0229x elapsed=0:01:50.51    \nframe=  155 fps=1.4 q=46.6 size=     256KiB time=00:00:02.55 bitrate= 822.6kbits/s speed=0.023x elapsed=0:01:51.04    \nframe=  156 fps=1.4 q=46.6 size=     256KiB time=00:00:02.56 bitrate= 817.2kbits/s speed=0.023x elapsed=0:01:51.57    \nframe=  156 fps=1.4 q=46.6 size=     256KiB time=00:00:02.56 bitrate= 817.2kbits/s speed=0.0229x elapsed=0:01:52.10    \nframe=  157 fps=1.4 q=44.0 size=     256KiB time=00:00:02.58 bitrate= 811.9kbits/s speed=0.0229x elapsed=0:01:52.62    \nframe=  158 fps=1.4 q=45.3 size=     256KiB time=00:00:02.60 bitrate= 806.7kbits/s speed=0.023x elapsed=0:01:53.13    \nframe=  158 fps=1.4 q=45.3 size=     256KiB time=00:00:02.60 bitrate= 806.7kbits/s speed=0.0229x elapsed=0:01:53.65    \nframe=  160 fps=1.4 q=46.6 size=     256KiB time=00:00:02.63 bitrate= 796.5kbits/s speed=0.0231x elapsed=0:01:54.18    \nframe=  160 fps=1.4 q=46.6 size=     256KiB time=00:00:02.63 bitrate= 796.5kbits/s speed=0.023x elapsed=0:01:54.71    \nframe=  162 fps=1.4 q=45.4 size=     256KiB time=00:00:02.66 bitrate= 786.6kbits/s speed=0.0231x elapsed=0:01:55.23    \nframe=  164 fps=1.4 q=47.5 size=     256KiB time=00:00:02.70 bitrate= 776.9kbits/s speed=0.0233x elapsed=0:01:55.74    \nframe=  164 fps=1.4 q=47.5 size=     256KiB time=00:00:02.70 bitrate= 776.9kbits/s speed=0.0232x elapsed=0:01:56.26    \nframe=  165 fps=1.4 q=44.0 size=     256KiB time=00:00:02.71 bitrate= 772.1kbits/s speed=0.0233x elapsed=0:01:56.79    \nframe=  166 fps=1.4 q=45.4 size=     256KiB time=00:00:02.73 bitrate= 767.4kbits/s speed=0.0233x elapsed=0:01:57.30    \nframe=  166 fps=1.4 q=45.4 size=     256KiB time=00:00:02.73 bitrate= 767.4kbits/s speed=0.0232x elapsed=0:01:57.82    \nframe=  167 fps=1.4 q=47.5 size=     256KiB time=00:00:02.75 bitrate= 762.7kbits/s speed=0.0232x elapsed=0:01:58.33    \nframe=  167 fps=1.4 q=47.5 size=     256KiB time=00:00:02.75 bitrate= 762.7kbits/s speed=0.0231x elapsed=0:01:58.85    \nframe=  167 fps=1.4 q=47.5 size=     256KiB time=00:00:02.75 bitrate= 762.7kbits/s speed=0.023x elapsed=0:01:59.38    \nframe=  169 fps=1.4 q=44.0 size=     256KiB time=00:00:02.78 bitrate= 753.6kbits/s speed=0.0232x elapsed=0:01:59.92    \nframe=  170 fps=1.4 q=46.1 size=     256KiB time=00:00:02.80 bitrate= 749.1kbits/s speed=0.0232x elapsed=0:02:00.43    \nframe=  170 fps=1.4 q=46.1 size=     256KiB time=00:00:02.80 bitrate= 749.1kbits/s speed=0.0231x elapsed=0:02:00.97    \nframe=  170 fps=1.4 q=46.1 size=     256KiB time=00:00:02.80 bitrate= 749.1kbits/s speed=0.023x elapsed=0:02:01.49    \nframe=  172 fps=1.4 q=47.4 size=     256KiB time=00:00:02.83 bitrate= 740.3kbits/s speed=0.0232x elapsed=0:02:02.01    \nframe=  172 fps=1.4 q=47.4 size=     256KiB time=00:00:02.83 bitrate= 740.3kbits/s speed=0.0231x elapsed=0:02:02.53    \nframe=  172 fps=1.4 q=47.4 size=     256KiB time=00:00:02.83 bitrate= 740.3kbits/s speed=0.023x elapsed=0:02:03.06    \nframe=  172 fps=1.4 q=47.4 size=     256KiB time=00:00:02.83 bitrate= 740.3kbits/s speed=0.0229x elapsed=0:02:03.61    \nframe=  173 fps=1.4 q=43.9 size=     256KiB time=00:00:02.85 bitrate= 736.0kbits/s speed=0.023x elapsed=0:02:04.16    \nframe=  173 fps=1.4 q=43.9 size=     256KiB time=00:00:02.85 bitrate= 736.0kbits/s speed=0.0229x elapsed=0:02:04.68    \nframe=  173 fps=1.4 q=43.9 size=     256KiB time=00:00:02.85 bitrate= 736.0kbits/s speed=0.0228x elapsed=0:02:05.20    \nframe=  173 fps=1.4 q=43.9 size=     256KiB time=00:00:02.85 bitrate= 736.0kbits/s speed=0.0227x elapsed=0:02:05.74    \nframe=  174 fps=1.4 q=46.0 size=     256KiB time=00:00:02.86 bitrate= 731.7kbits/s speed=0.0227x elapsed=0:02:06.28    \nframe=  175 fps=1.4 q=47.4 size=     256KiB time=00:00:02.88 bitrate= 727.5kbits/s speed=0.0227x elapsed=0:02:06.82    \nframe=  176 fps=1.4 q=47.3 size=     256KiB time=00:00:02.90 bitrate= 723.3kbits/s speed=0.0228x elapsed=0:02:07.34    \nframe=  177 fps=1.4 q=43.8 size=     256KiB time=00:00:02.91 bitrate= 719.1kbits/s speed=0.0228x elapsed=0:02:07.88    \nframe=  178 fps=1.4 q=45.9 size=     256KiB time=00:00:02.93 bitrate= 715.1kbits/s speed=0.0228x elapsed=0:02:08.41    \nframe=  180 fps=1.4 q=47.3 size=     256KiB time=00:00:02.96 bitrate= 707.0kbits/s speed=0.023x elapsed=0:02:08.93    \nframe=  182 fps=1.4 q=45.9 size=     256KiB time=00:00:03.00 bitrate= 699.2kbits/s speed=0.0232x elapsed=0:02:09.44    \nframe=  183 fps=1.4 q=47.2 size=     256KiB time=00:00:03.01 bitrate= 695.3kbits/s speed=0.0232x elapsed=0:02:09.96    \nframe=  183 fps=1.4 q=47.2 size=     256KiB time=00:00:03.01 bitrate= 695.3kbits/s speed=0.0231x elapsed=0:02:10.48    \nframe=  186 fps=1.4 q=47.2 size=     256KiB time=00:00:03.06 bitrate= 684.0kbits/s speed=0.0234x elapsed=0:02:11.00    \nframe=  187 fps=1.4 q=47.2 size=     256KiB time=00:00:03.08 bitrate= 680.3kbits/s speed=0.0234x elapsed=0:02:11.52    \nframe=  188 fps=1.4 q=43.5 size=     256KiB time=00:00:03.10 bitrate= 676.6kbits/s speed=0.0235x elapsed=0:02:12.05    \nframe=  189 fps=1.4 q=45.7 size=     256KiB time=00:00:03.11 bitrate= 673.0kbits/s speed=0.0235x elapsed=0:02:12.56    \nframe=  192 fps=1.4 q=43.7 size=     256KiB time=00:00:03.16 bitrate= 662.4kbits/s speed=0.0238x elapsed=0:02:13.07    \nframe=  192 fps=1.4 q=43.7 size=     256KiB time=00:00:03.16 bitrate= 662.4kbits/s speed=0.0237x elapsed=0:02:13.60    \nframe=  193 fps=1.4 q=45.3 size=     256KiB time=00:00:03.18 bitrate= 658.9kbits/s speed=0.0237x elapsed=0:02:14.11    \nframe=  196 fps=1.5 q=47.0 size=     256KiB time=00:00:03.23 bitrate= 648.7kbits/s speed=0.024x elapsed=0:02:14.64    \nframe=  197 fps=1.5 q=43.3 size=     256KiB time=00:00:03.25 bitrate= 645.4kbits/s speed=0.024x elapsed=0:02:15.14    \nframe=  198 fps=1.5 q=44.8 size=     256KiB time=00:00:03.26 bitrate= 642.1kbits/s speed=0.0241x elapsed=0:02:15.66    \nframe=  200 fps=1.5 q=46.9 size=     256KiB time=00:00:03.30 bitrate= 635.6kbits/s speed=0.0242x elapsed=0:02:16.19    \nframe=  200 fps=1.5 q=46.9 size=     256KiB time=00:00:03.30 bitrate= 635.6kbits/s speed=0.0241x elapsed=0:02:16.70    \nframe=  201 fps=1.5 q=43.1 size=     256KiB time=00:00:03.31 bitrate= 632.4kbits/s speed=0.0242x elapsed=0:02:17.23    \nframe=  203 fps=1.5 q=46.9 size=     256KiB time=00:00:03.35 bitrate= 626.1kbits/s speed=0.0243x elapsed=0:02:17.75    \nframe=  204 fps=1.5 q=46.8 size=     256KiB time=00:00:03.36 bitrate= 623.0kbits/s speed=0.0244x elapsed=0:02:18.25    \nframe=  205 fps=1.5 q=42.9 size=     256KiB time=00:00:03.38 bitrate= 620.0kbits/s speed=0.0244x elapsed=0:02:18.78    \nframe=  206 fps=1.5 q=45.0 size=     256KiB time=00:00:03.40 bitrate= 616.9kbits/s speed=0.0244x elapsed=0:02:19.30    \nframe=  208 fps=1.5 q=46.9 size=     256KiB time=00:00:03.43 bitrate= 610.9kbits/s speed=0.0246x elapsed=0:02:19.82    \nframe=  210 fps=1.5 q=44.6 size=     256KiB time=00:00:03.46 bitrate= 605.0kbits/s speed=0.0247x elapsed=0:02:20.34    \nframe=  210 fps=1.5 q=44.6 size=     256KiB time=00:00:03.46 bitrate= 605.0kbits/s speed=0.0246x elapsed=0:02:20.86    \nframe=  212 fps=1.5 q=46.8 size=     256KiB time=00:00:03.50 bitrate= 599.3kbits/s speed=0.0248x elapsed=0:02:21.39    \nframe=  213 fps=1.5 q=43.0 size=     256KiB time=00:00:03.51 bitrate= 596.4kbits/s speed=0.0248x elapsed=0:02:21.92    \nframe=  214 fps=1.5 q=44.7 size=     256KiB time=00:00:03.53 bitrate= 593.6kbits/s speed=0.0248x elapsed=0:02:22.45    \nframe=  215 fps=1.5 q=46.9 size=     256KiB time=00:00:03.55 bitrate= 590.8kbits/s speed=0.0248x elapsed=0:02:22.96    \nframe=  217 fps=1.5 q=42.7 size=     256KiB time=00:00:03.58 bitrate= 585.4kbits/s speed=0.025x elapsed=0:02:23.48    \nframe=  218 fps=1.5 q=44.5 size=     256KiB time=00:00:03.60 bitrate= 582.6kbits/s speed=0.025x elapsed=0:02:24.00    \nframe=  218 fps=1.5 q=44.5 size=     256KiB time=00:00:03.60 bitrate= 582.6kbits/s speed=0.0249x elapsed=0:02:24.50    \nframe=  219 fps=1.5 q=46.6 size=     256KiB time=00:00:03.61 bitrate= 580.0kbits/s speed=0.0249x elapsed=0:02:25.02    \nframe=  220 fps=1.5 q=46.8 size=     256KiB time=00:00:03.63 bitrate= 577.3kbits/s speed=0.025x elapsed=0:02:25.59    \nframe=  220 fps=1.5 q=46.8 size=     256KiB time=00:00:03.63 bitrate= 577.3kbits/s speed=0.0249x elapsed=0:02:26.12    \nframe=  222 fps=1.5 q=44.3 size=     256KiB time=00:00:03.65 bitrate= 574.7kbits/s speed=0.0249x elapsed=0:02:26.67    \nframe=  222 fps=1.5 q=44.3 size=     256KiB time=00:00:03.66 bitrate= 572.0kbits/s speed=0.0249x elapsed=0:02:27.22    \nframe=  222 fps=1.5 q=44.3 size=     256KiB time=00:00:03.66 bitrate= 572.0kbits/s speed=0.0248x elapsed=0:02:27.74    \nframe=  224 fps=1.5 q=46.7 size=     256KiB time=00:00:03.70 bitrate= 566.9kbits/s speed=0.025x elapsed=0:02:28.27    \nframe=  225 fps=1.5 q=42.2 size=     256KiB time=00:00:03.71 bitrate= 564.4kbits/s speed=0.025x elapsed=0:02:28.79    \nframe=  225 fps=1.5 q=42.2 size=     256KiB time=00:00:03.71 bitrate= 564.4kbits/s speed=0.0249x elapsed=0:02:29.31    \nframe=  228 fps=1.5 q=46.4 size=     256KiB time=00:00:03.76 bitrate= 556.9kbits/s speed=0.0251x elapsed=0:02:29.84    \nframe=  231 fps=1.5 q=46.0 size=     256KiB time=00:00:03.81 bitrate= 549.6kbits/s speed=0.0254x elapsed=0:02:30.37    \nframe=  232 fps=1.5 q=45.8 size=     256KiB time=00:00:03.83 bitrate= 547.2kbits/s speed=0.0254x elapsed=0:02:30.90    \nframe=  232 fps=1.5 q=45.8 size=     256KiB time=00:00:03.83 bitrate= 547.2kbits/s speed=0.0253x elapsed=0:02:31.45    \nframe=  232 fps=1.5 q=45.8 size=     256KiB time=00:00:03.83 bitrate= 547.2kbits/s speed=0.0252x elapsed=0:02:31.98    \nframe=  232 fps=1.5 q=45.8 size=     256KiB time=00:00:03.83 bitrate= 547.2kbits/s speed=0.0251x elapsed=0:02:32.50    \nframe=  233 fps=1.5 q=42.6 size=     256KiB time=00:00:03.85 bitrate= 544.8kbits/s speed=0.0252x elapsed=0:02:33.02    \nframe=  233 fps=1.5 q=42.6 size=     256KiB time=00:00:03.85 bitrate= 544.8kbits/s speed=0.0251x elapsed=0:02:33.56    \nframe=  233 fps=1.5 q=42.6 size=     256KiB time=00:00:03.85 bitrate= 544.8kbits/s speed=0.025x elapsed=0:02:34.10    \nframe=  233 fps=1.5 q=42.6 size=     256KiB time=00:00:03.85 bitrate= 544.8kbits/s speed=0.0249x elapsed=0:02:34.63    \nframe=  235 fps=1.5 q=46.0 size=     256KiB time=00:00:03.88 bitrate= 540.1kbits/s speed=0.025x elapsed=0:02:35.14    \nframe=  237 fps=1.5 q=41.9 size=     256KiB time=00:00:03.91 bitrate= 535.5kbits/s speed=0.0252x elapsed=0:02:35.66    \nframe=  237 fps=1.5 q=41.9 size=     256KiB time=00:00:03.91 bitrate= 535.5kbits/s speed=0.0251x elapsed=0:02:36.18    \nframe=  237 fps=1.5 q=41.9 size=     256KiB time=00:00:03.91 bitrate= 535.5kbits/s speed=0.025x elapsed=0:02:36.70    \nframe=  237 fps=1.5 q=41.9 size=     256KiB time=00:00:03.91 bitrate= 535.5kbits/s speed=0.0249x elapsed=0:02:37.23    \nframe=  237 fps=1.5 q=41.9 size=     256KiB time=00:00:03.91 bitrate= 535.5kbits/s speed=0.0248x elapsed=0:02:37.75    \nframe=  237 fps=1.5 q=41.9 size=     256KiB time=00:00:03.91 bitrate= 535.5kbits/s speed=0.0247x elapsed=0:02:38.27    \nframe=  239 fps=1.5 q=46.0 size=     256KiB time=00:00:03.95 bitrate= 531.0kbits/s speed=0.0249x elapsed=0:02:38.80    \nframe=  240 fps=1.5 q=45.9 size=     256KiB time=00:00:03.96 bitrate= 528.8kbits/s speed=0.0249x elapsed=0:02:39.33    \nframe=  240 fps=1.5 q=45.9 size=     256KiB time=00:00:03.96 bitrate= 528.8kbits/s speed=0.0248x elapsed=0:02:39.87    \nframe=  240 fps=1.5 q=45.9 size=     256KiB time=00:00:03.96 bitrate= 528.8kbits/s speed=0.0247x elapsed=0:02:40.42    \nframe=  240 fps=1.5 q=45.9 size=     256KiB time=00:00:03.96 bitrate= 528.8kbits/s speed=0.0246x elapsed=0:02:40.94    \nframe=  241 fps=1.5 q=42.3 size=     256KiB time=00:00:03.98 bitrate= 526.6kbits/s speed=0.0247x elapsed=0:02:41.47    \nframe=  242 fps=1.5 q=43.9 size=     256KiB time=00:00:04.00 bitrate= 524.4kbits/s speed=0.0247x elapsed=0:02:42.00    \nframe=  243 fps=1.5 q=45.9 size=     256KiB time=00:00:04.01 bitrate= 522.2kbits/s speed=0.0247x elapsed=0:02:42.52    \nframe=  245 fps=1.5 q=42.4 size=     256KiB time=00:00:04.05 bitrate= 517.9kbits/s speed=0.0248x elapsed=0:02:43.06    \nframe=  245 fps=1.5 q=42.4 size=     256KiB time=00:00:04.05 bitrate= 517.9kbits/s speed=0.0248x elapsed=0:02:43.63    \nframe=  247 fps=1.5 q=46.1 size=     256KiB time=00:00:04.08 bitrate= 513.7kbits/s speed=0.0249x elapsed=0:02:44.17    \nframe=  247 fps=1.5 q=46.1 size=     256KiB time=00:00:04.08 bitrate= 513.7kbits/s speed=0.0248x elapsed=0:02:44.72    \nframe=  247 fps=1.5 q=46.1 size=     256KiB time=00:00:04.08 bitrate= 513.7kbits/s speed=0.0247x elapsed=0:02:45.27    \nframe=  247 fps=1.5 q=46.1 size=     256KiB time=00:00:04.08 bitrate= 513.7kbits/s speed=0.0246x elapsed=0:02:45.86    \nframe=  248 fps=1.5 q=45.8 size=     256KiB time=00:00:04.10 bitrate= 511.6kbits/s speed=0.0246x elapsed=0:02:46.41    \nframe=  249 fps=1.5 q=39.8 size=     256KiB time=00:00:04.11 bitrate= 509.5kbits/s speed=0.0247x elapsed=0:02:46.94    \nframe=  249 fps=1.5 q=39.8 size=     256KiB time=00:00:04.11 bitrate= 509.5kbits/s speed=0.0246x elapsed=0:02:47.47    \nframe=  249 fps=1.5 q=39.8 size=     256KiB time=00:00:04.11 bitrate= 509.5kbits/s speed=0.0245x elapsed=0:02:48.06    \nframe=  249 fps=1.5 q=39.8 size=     256KiB time=00:00:04.11 bitrate= 509.5kbits/s speed=0.0244x elapsed=0:02:48.62    \nframe=  252 fps=1.5 q=42.7 size=     512KiB time=00:00:04.16 bitrate=1006.7kbits/s speed=0.0246x elapsed=0:02:49.16    \nframe=  252 fps=1.5 q=42.7 size=     512KiB time=00:00:04.16 bitrate=1006.7kbits/s speed=0.0246x elapsed=0:02:49.68    \nframe=  253 fps=1.5 q=43.6 size=     512KiB time=00:00:04.18 bitrate=1002.7kbits/s speed=0.0246x elapsed=0:02:50.20    \nframe=  255 fps=1.5 q=45.8 size=     512KiB time=00:00:04.21 bitrate= 994.8kbits/s speed=0.0247x elapsed=0:02:50.70    \nframe=  256 fps=1.5 q=42.5 size=     512KiB time=00:00:04.23 bitrate= 990.9kbits/s speed=0.0247x elapsed=0:02:51.22    \nframe=  256 fps=1.5 q=42.5 size=     512KiB time=00:00:04.23 bitrate= 990.9kbits/s speed=0.0246x elapsed=0:02:51.75    \nframe=  257 fps=1.5 q=44.1 size=     512KiB time=00:00:04.25 bitrate= 987.0kbits/s speed=0.0247x elapsed=0:02:52.25    \nframe=  259 fps=1.5 q=45.8 size=     512KiB time=00:00:04.28 bitrate= 979.3kbits/s speed=0.0248x elapsed=0:02:52.77    \nframe=  260 fps=1.5 q=42.4 size=     512KiB time=00:00:04.30 bitrate= 975.5kbits/s speed=0.0248x elapsed=0:02:53.29    \nframe=  261 fps=1.5 q=44.3 size=     512KiB time=00:00:04.31 bitrate= 971.7kbits/s speed=0.0248x elapsed=0:02:53.82    \nframe=  263 fps=1.5 q=45.9 size=     512KiB time=00:00:04.35 bitrate= 964.3kbits/s speed=0.025x elapsed=0:02:54.34    \nframe=  264 fps=1.5 q=42.4 size=     512KiB time=00:00:04.36 bitrate= 960.6kbits/s speed=0.025x elapsed=0:02:54.85    \nframe=  264 fps=1.5 q=42.4 size=     512KiB time=00:00:04.36 bitrate= 960.6kbits/s speed=0.0249x elapsed=0:02:55.36    \nframe=  265 fps=1.5 q=44.4 size=     512KiB time=00:00:04.38 bitrate= 957.0kbits/s speed=0.0249x elapsed=0:02:55.89    \nframe=  267 fps=1.5 q=45.9 size=     512KiB time=00:00:04.41 bitrate= 949.7kbits/s speed=0.025x elapsed=0:02:56.40    \nframe=  267 fps=1.5 q=45.9 size=     512KiB time=00:00:04.41 bitrate= 949.7kbits/s speed=0.025x elapsed=0:02:56.92    \nframe=  268 fps=1.5 q=42.5 size=     512KiB time=00:00:04.43 bitrate= 946.2kbits/s speed=0.025x elapsed=0:02:57.45    \nframe=  269 fps=1.5 q=44.4 size=     512KiB time=00:00:04.45 bitrate= 942.6kbits/s speed=0.025x elapsed=0:02:57.97    \nframe=  271 fps=1.5 q=46.1 size=     512KiB time=00:00:04.48 bitrate= 935.6kbits/s speed=0.0251x elapsed=0:02:58.50    \nframe=  272 fps=1.5 q=43.2 size=     512KiB time=00:00:04.50 bitrate= 932.1kbits/s speed=0.0251x elapsed=0:02:59.02    \nframe=  272 fps=1.5 q=43.2 size=     512KiB time=00:00:04.50 bitrate= 932.1kbits/s speed=0.0251x elapsed=0:02:59.54    \nframe=  273 fps=1.5 q=44.3 size=     512KiB time=00:00:04.51 bitrate= 928.7kbits/s speed=0.0251x elapsed=0:03:00.06    \nframe=  275 fps=1.5 q=46.0 size=     512KiB time=00:00:04.55 bitrate= 921.9kbits/s speed=0.0252x elapsed=0:03:00.58    \nframe=  276 fps=1.5 q=42.7 size=     512KiB time=00:00:04.56 bitrate= 918.5kbits/s speed=0.0252x elapsed=0:03:01.08    \nframe=  276 fps=1.5 q=42.7 size=     512KiB time=00:00:04.56 bitrate= 918.5kbits/s speed=0.0251x elapsed=0:03:01.60    \nframe=  279 fps=1.5 q=46.0 size=     512KiB time=00:00:04.61 bitrate= 908.6kbits/s speed=0.0254x elapsed=0:03:02.11    \nframe=  280 fps=1.5 q=43.3 size=     512KiB time=00:00:04.63 bitrate= 905.3kbits/s speed=0.0254x elapsed=0:03:02.63    \nframe=  281 fps=1.5 q=44.7 size=     512KiB time=00:00:04.65 bitrate= 902.1kbits/s speed=0.0254x elapsed=0:03:03.15    \nframe=  283 fps=1.5 q=46.1 size=     512KiB time=00:00:04.68 bitrate= 895.7kbits/s speed=0.0255x elapsed=0:03:03.67    \nframe=  283 fps=1.5 q=46.1 size=     512KiB time=00:00:04.68 bitrate= 895.7kbits/s speed=0.0254x elapsed=0:03:04.19    \nframe=  285 fps=1.5 q=44.7 size=     512KiB time=00:00:04.71 bitrate= 889.3kbits/s speed=0.0255x elapsed=0:03:04.71    \nframe=  286 fps=1.5 q=45.9 size=     512KiB time=00:00:04.73 bitrate= 886.2kbits/s speed=0.0255x elapsed=0:03:05.25    \nframe=  287 fps=1.5 q=46.3 size=     512KiB time=00:00:04.75 bitrate= 883.1kbits/s speed=0.0256x elapsed=0:03:05.78    \nframe=  289 fps=1.6 q=45.0 size=     512KiB time=00:00:04.76 bitrate= 880.0kbits/s speed=0.0256x elapsed=0:03:06.28    \nframe=  289 fps=1.5 q=45.0 size=     512KiB time=00:00:04.78 bitrate= 876.9kbits/s speed=0.0256x elapsed=0:03:06.80    \nframe=  292 fps=1.6 q=46.2 size=     512KiB time=00:00:04.83 bitrate= 867.9kbits/s speed=0.0258x elapsed=0:03:07.33    \nframe=  292 fps=1.6 q=46.2 size=     512KiB time=00:00:04.83 bitrate= 867.9kbits/s speed=0.0257x elapsed=0:03:07.83    \nframe=  293 fps=1.6 q=43.6 size=     512KiB time=00:00:04.85 bitrate= 864.9kbits/s speed=0.0257x elapsed=0:03:08.35    \nframe=  294 fps=1.6 q=45.0 size=     512KiB time=00:00:04.86 bitrate= 861.9kbits/s speed=0.0258x elapsed=0:03:08.87    \nframe=  295 fps=1.6 q=46.2 size=     512KiB time=00:00:04.88 bitrate= 859.0kbits/s speed=0.0258x elapsed=0:03:09.39    \nframe=  296 fps=1.6 q=46.3 size=     512KiB time=00:00:04.90 bitrate= 856.1kbits/s speed=0.0258x elapsed=0:03:09.91    \nframe=  297 fps=1.6 q=44.1 size=     512KiB time=00:00:04.91 bitrate= 853.2kbits/s speed=0.0258x elapsed=0:03:10.43    \nframe=  298 fps=1.6 q=45.1 size=     512KiB time=00:00:04.93 bitrate= 850.3kbits/s speed=0.0258x elapsed=0:03:10.95    \nframe=  298 fps=1.6 q=45.1 size=     512KiB time=00:00:04.93 bitrate= 850.3kbits/s speed=0.0258x elapsed=0:03:11.48    \n[mp4 @ 0000014bb7997a00] Starting second pass: moving the moov atom to the beginning of the file\n[out#0/mp4 @ 0000014bb7997900] video:609KiB audio:0KiB subtitle:0KiB other streams:0KiB global headers:2KiB muxing overhead: 1.158362%\nframe=  300 fps=1.6 q=46.5 Lsize=     616KiB time=00:00:04.96 bitrate=1016.4kbits/s speed=0.0259x elapsed=0:03:11.52    \nx265 [info]: frame I:      2, Avg QP:43.78  kb/s: 1926.72 \nx265 [info]: frame P:     74, Avg QP:43.33  kb/s: 1760.93 \nx265 [info]: frame B:    224, Avg QP:45.89  kb/s: 735.23  \nx265 [info]: Weighted P-Frames: Y:2.7% UV:2.7%\n\nencoded 300 frames in 191.18s (1.57 fps), 996.18 kb/s, Avg QP:45.24\n",
  "seconds": 191.82099270820618,
  "probe_out": {}
}